<svg width="32" height="32" viewBox="0 0 32 32" fill="none" xmlns="http://www.w3.org/2000/svg">
<g clip-path="url(#clip0_1369_1453)">
<path d="M15.8667 0C9.29589 0 3.96667 5.32922 3.96667 11.9C3.96667 19.5438 9.71412 22.8857 10.9846 24.4103C14.0359 28.0718 14.2083 31.7333 15.8667 31.7333C17.525 31.7333 17.6974 28.0718 20.7487 24.4103C22.0192 22.8857 27.7667 19.5438 27.7667 11.9C27.7667 5.32922 22.4375 0 15.8667 0ZM15.8667 19.8333C11.4855 19.8333 7.93334 16.2812 7.93334 11.9C7.93334 7.51882 11.4855 3.96667 15.8667 3.96667C20.2479 3.96667 23.8 7.51882 23.8 11.9C23.8 16.2812 20.2479 19.8333 15.8667 19.8333ZM15.8667 7.93333C13.6771 7.93333 11.9 9.7104 11.9 11.9C11.9 14.0896 13.6771 15.8667 15.8667 15.8667C18.0563 15.8667 19.8333 14.0896 19.8333 11.9C19.8333 9.7104 18.0563 7.93333 15.8667 7.93333Z" fill="#FFD74B"/>
<ellipse cx="15.8667" cy="11.8999" rx="1.32222" ry="1.32222" fill="#161C35"/>
</g>
<defs>
<clipPath id="clip0_1369_1453">
<rect width="31.7333" height="31.7333" fill="white"/>
</clipPath>
</defs>
</svg>
